<!--?xml version="1.0" encoding="us-ascii" standalone="no"?--><svg xmlns="http://www.w3.org/2000/svg" xmlns:xlink="http://www.w3.org/1999/xlink" contentstyletype="text/css" height="1555px" preserveAspectRatio="none" style="width:577px;height:1555px;background:#FFFFFF;" version="1.1" viewBox="0 0 577 1555" width="577px" zoomAndPan="magnify"><defs></defs><g><!--cluster OLS--><g id="cluster_OLS"><rect fill="none" height="1542" rx="2.5" ry="2.5" style="stroke:#181818;stroke-width:1.0;" width="319.07" x="252" y="7"></rect><text fill="#000000" font-family="sans-serif" font-size="14" font-weight="bold" lengthAdjust="spacing" textLength="279" x="272.035" y="21.9951">Online Library Management System</text></g><g id="elem_UC01"><ellipse cx="411.5424" cy="234.0045" fill="#F1F1F1" rx="141.6224" ry="30.7245" style="stroke:#181818;stroke-width:0.5;"></ellipse><text fill="#000000" font-family="sans-serif" font-size="14" lengthAdjust="spacing" textLength="253" x="285.0424" y="236.8512">User Registration and Authentication</text></g><g id="elem_UC02"><ellipse cx="411.5418" cy="1344.9964" fill="#F1F1F1" rx="92.3318" ry="20.8664" style="stroke:#181818;stroke-width:0.5;"></ellipse><text fill="#000000" font-family="sans-serif" font-size="14" lengthAdjust="spacing" textLength="147" x="338.0418" y="1347.843">Catalog Management</text></g><g id="elem_UC03"><ellipse cx="411.5429" cy="790.0046" fill="#F1F1F1" rx="93.2229" ry="21.0446" style="stroke:#181818;stroke-width:0.5;"></ellipse><text fill="#000000" font-family="sans-serif" font-size="14" lengthAdjust="spacing" textLength="149" x="337.0429" y="792.8513">Borrowing Resources</text></g><g id="elem_UC04"><ellipse cx="411.5428" cy="866.0026" fill="#F1F1F1" rx="87.9128" ry="19.9826" style="stroke:#181818;stroke-width:0.5;"></ellipse><text fill="#000000" font-family="sans-serif" font-size="14" lengthAdjust="spacing" textLength="137" x="343.0428" y="868.8492">Reservation System</text></g><g id="elem_UC05"><ellipse cx="411.5351" cy="1024.995" fill="#F1F1F1" rx="104.0751" ry="23.215" style="stroke:#181818;stroke-width:0.5;"></ellipse><text fill="#000000" font-family="sans-serif" font-size="14" lengthAdjust="spacing" textLength="173" x="325.0351" y="1027.8417">User Profile Management</text></g><g id="elem_UC06"><ellipse cx="411.5396" cy="1509.9999" fill="#F1F1F1" rx="105.4496" ry="23.4899" style="stroke:#181818;stroke-width:0.5;"></ellipse><text fill="#000000" font-family="sans-serif" font-size="14" lengthAdjust="spacing" textLength="176" x="323.5396" y="1512.8466">Administrative Dashboard</text></g><g id="elem_UC07"><ellipse cx="411.5442" cy="315.0028" fill="#F1F1F1" rx="66.8142" ry="15.7628" style="stroke:#181818;stroke-width:0.5;"></ellipse><text fill="#000000" font-family="sans-serif" font-size="14" lengthAdjust="spacing" textLength="84" x="366.5442" y="318.7504">Notifications</text></g><g id="elem_UC08"><ellipse cx="411.543" cy="1194.9971" fill="#F1F1F1" rx="60.813" ry="14.7771" style="stroke:#181818;stroke-width:0.5;"></ellipse><text fill="#000000" font-family="sans-serif" font-size="14" lengthAdjust="spacing" textLength="68" x="374.543" y="1198.7447">Reporting</text></g><g id="elem_UC10"><ellipse cx="411.5434" cy="382.0027" fill="#F1F1F1" rx="70.0634" ry="16.4127" style="stroke:#181818;stroke-width:0.5;"></ellipse><text fill="#000000" font-family="sans-serif" font-size="14" lengthAdjust="spacing" textLength="93" x="362.0434" y="385.7502">Fine Payment</text></g><g id="elem_UC11"><ellipse cx="411.5408" cy="944.0022" fill="#F1F1F1" rx="103.1608" ry="23.0322" style="stroke:#181818;stroke-width:0.5;"></ellipse><text fill="#000000" font-family="sans-serif" font-size="14" lengthAdjust="spacing" textLength="171" x="326.0408" y="946.8488">Interlibrary Loan Request</text></g><g id="elem_UC12"><ellipse cx="411.5379" cy="451.9976" fill="#F1F1F1" rx="83.1379" ry="19.0276" style="stroke:#181818;stroke-width:0.5;"></ellipse><text fill="#000000" font-family="sans-serif" font-size="14" lengthAdjust="spacing" textLength="126" x="347.9914" y="455.0294">Event Registration</text></g><g id="elem_UC13"><ellipse cx="411.5353" cy="1113.9971" fill="#F1F1F1" rx="143.5353" ry="31.1071" style="stroke:#181818;stroke-width:0.5;"></ellipse><text fill="#000000" font-family="sans-serif" font-size="14" lengthAdjust="spacing" textLength="257" x="283.0353" y="1116.8437">Community Discussion Board Access</text></g><g id="elem_UC14"><ellipse cx="411.5437" cy="1425.9987" fill="#F1F1F1" rx="116.0937" ry="25.6187" style="stroke:#181818;stroke-width:0.5;"></ellipse><text fill="#000000" font-family="sans-serif" font-size="14" lengthAdjust="spacing" textLength="199" x="312.0437" y="1428.8454">Access Control Management</text></g><g id="elem_UC15"><ellipse cx="411.542" cy="536.0024" fill="#F1F1F1" rx="139.712" ry="30.3424" style="stroke:#181818;stroke-width:0.5;"></ellipse><text fill="#000000" font-family="sans-serif" font-size="14" lengthAdjust="spacing" textLength="249" x="287.042" y="538.8491">Resource Recommendation System</text></g><g id="elem_UC16"><ellipse cx="411.5421" cy="705.0044" fill="#F1F1F1" rx="132.5721" ry="28.9144" style="stroke:#181818;stroke-width:0.5;"></ellipse><text fill="#000000" font-family="sans-serif" font-size="14" lengthAdjust="spacing" textLength="234" x="294.5421" y="707.8511">Remote Access for External Users</text></g><g id="elem_UC17"><ellipse cx="411.5399" cy="1267.002" fill="#F1F1F1" rx="97.2599" ry="21.852" style="stroke:#181818;stroke-width:0.5;"></ellipse><text fill="#000000" font-family="sans-serif" font-size="14" lengthAdjust="spacing" textLength="158" x="332.5399" y="1269.8487">Inventory Management</text></g><g id="elem_UC18"><ellipse cx="411.5368" cy="620.9974" fill="#F1F1F1" rx="87.0368" ry="19.8074" style="stroke:#181818;stroke-width:0.5;"></ellipse><text fill="#000000" font-family="sans-serif" font-size="14" lengthAdjust="spacing" textLength="135" x="344.0368" y="623.844">Multilingual Support</text></g><g id="elem_UC19"><ellipse cx="411.5404" cy="63.0021" fill="#F1F1F1" rx="95.4604" ry="21.4921" style="stroke:#181818;stroke-width:0.5;"></ellipse><text fill="#000000" font-family="sans-serif" font-size="14" lengthAdjust="spacing" textLength="154" x="334.5404" y="65.8488">E-Resource Download</text></g><g id="elem_UC20"><ellipse cx="411.5443" cy="143.9989" fill="#F1F1F1" rx="111.4443" ry="24.6889" style="stroke:#181818;stroke-width:0.5;"></ellipse><text fill="#000000" font-family="sans-serif" font-size="14" lengthAdjust="spacing" textLength="189" x="317.0443" y="146.8455">Library Account Self-Service</text></g><!--entity U--><g id="elem_U"><ellipse cx="107" cy="549.35" fill="#F1F1F1" rx="8" ry="8" style="stroke:#181818;stroke-width:0.5;"></ellipse><path d="M107,557.35 L107,584.35 M94,565.35 L120,565.35 M107,584.35 L94,599.35 M107,584.35 L120,599.35 " fill="none" style="stroke:#181818;stroke-width:0.5;"></path><text fill="#000000" font-family="sans-serif" font-size="14" lengthAdjust="spacing" textLength="32" x="91" y="613.8451">User</text></g><!--entity L--><g id="elem_L"><ellipse cx="107" cy="1084.35" fill="#F1F1F1" rx="8" ry="8" style="stroke:#181818;stroke-width:0.5;"></ellipse><path d="M107,1092.35 L107,1119.35 M94,1100.35 L120,1100.35 M107,1119.35 L94,1134.35 M107,1119.35 L120,1134.35 " fill="none" style="stroke:#181818;stroke-width:0.5;"></path><text fill="#000000" font-family="sans-serif" font-size="14" lengthAdjust="spacing" textLength="57" x="78.5" y="1148.8451">Librarian</text></g><!--entity SA--><g id="elem_SA"><ellipse cx="107" cy="1438.35" fill="#F1F1F1" rx="8" ry="8" style="stroke:#181818;stroke-width:0.5;"></ellipse><path d="M107,1446.35 L107,1473.35 M94,1454.35 L120,1454.35 M107,1473.35 L94,1488.35 M107,1473.35 L120,1488.35 " fill="none" style="stroke:#181818;stroke-width:0.5;"></path><text fill="#000000" font-family="sans-serif" font-size="14" lengthAdjust="spacing" textLength="94" x="60" y="1502.8451">SystemAdmin</text></g><!--entity ERV--><g id="elem_ERV"><ellipse cx="107" cy="795.35" fill="#F1F1F1" rx="8" ry="8" style="stroke:#181818;stroke-width:0.5;"></ellipse><path d="M107,803.35 L107,830.35 M94,811.35 L120,811.35 M107,830.35 L94,845.35 M107,830.35 L120,845.35 " fill="none" style="stroke:#181818;stroke-width:0.5;"></path><text fill="#000000" font-family="sans-serif" font-size="14" lengthAdjust="spacing" textLength="202" x="6" y="859.8451">External Researchers/Visitors</text></g><!--link U to UC01--><g id="link_U_UC01"><path d="M114.91,540.48 C128.31,477.11 163.86,351.02 244,282 C259.28,268.84 272.3159,261.3256 291.5859,254.3756 " fill="none" id="U-to-UC01" style="stroke:#181818;stroke-width:1.0;"></path><polygon fill="#181818" points="297.23,252.34,287.4067,251.6307,292.5266,254.0364,290.1209,259.1562,297.23,252.34" style="stroke:#181818;stroke-width:1.0;"></polygon></g><!--link U to UC03--><g id="link_U_UC03"><path d="M123.34,609.03 C144.86,648.02 187.77,715.28 244,751 C268.31,766.44 292.2316,774.5784 319.8716,780.2284 " fill="none" id="U-to-UC03" style="stroke:#181818;stroke-width:1.0;"></path><polygon fill="#181818" points="325.75,781.43,317.7334,775.7086,320.8513,780.4286,316.1312,783.5465,325.75,781.43" style="stroke:#181818;stroke-width:1.0;"></polygon></g><!--link U to UC04--><g id="link_U_UC04"><path d="M123.26,608.59 C156.68,673.16 234.13,821.57 244,829 C267.42,846.64 291.724,855.1121 319.974,860.1721 " fill="none" id="U-to-UC04" style="stroke:#181818;stroke-width:1.0;"></path><polygon fill="#181818" points="325.88,861.23,317.7262,855.7059,320.9583,860.3485,316.3157,863.5806,325.88,861.23" style="stroke:#181818;stroke-width:1.0;"></polygon></g><!--link U to UC05--><g id="link_U_UC05"><path d="M123.36,602.19 C145.62,636.93 186.53,705.24 208,769 C239.06,861.24 177.65,913.8 244,985 C261.13,1003.38 279.261,1012.5679 303.691,1018.5279 " fill="none" id="U-to-UC05" style="stroke:#181818;stroke-width:1.0;"></path><polygon fill="#181818" points="309.52,1019.95,301.7245,1013.9309,304.6625,1018.7649,299.8284,1021.7029,309.52,1019.95" style="stroke:#181818;stroke-width:1.0;"></polygon></g><!--link U to UC07--><g id="link_U_UC07"><path d="M119.52,540.64 C137.3,488.37 176.63,395.81 244,348 C272.96,327.45 305.5895,319.5245 338.3295,316.2645 " fill="none" id="U-to-UC07" style="stroke:#181818;stroke-width:1.0;"></path><polygon fill="#181818" points="344.3,315.67,334.948,312.5814,339.3246,316.1654,335.7406,320.5421,344.3,315.67" style="stroke:#181818;stroke-width:1.0;"></polygon></g><!--link U to UC10--><g id="link_U_UC10"><path d="M123.34,550.4 C145.01,512.96 188.22,448.21 244,415 C273.5,397.43 304.686,389.7614 336.406,385.8114 " fill="none" id="U-to-UC10" style="stroke:#181818;stroke-width:1.0;"></path><polygon fill="#181818" points="342.36,385.07,332.9347,382.2128,337.3983,385.6879,333.9233,390.1515,342.36,385.07" style="stroke:#181818;stroke-width:1.0;"></polygon></g><!--link U to UC11--><g id="link_U_UC11"><path d="M123.45,603.96 C144.9,639.5 183.79,707.22 208,769 C230.5,826.42 199.94,859.86 244,903 C262.3,920.92 281.26,930.0018 306.13,936.0518 " fill="none" id="U-to-UC11" style="stroke:#181818;stroke-width:1.0;"></path><polygon fill="#181818" points="311.96,937.47,304.1605,931.456,307.1017,936.2881,302.2695,939.2293,311.96,937.47" style="stroke:#181818;stroke-width:1.0;"></polygon></g><!--link U to UC12--><g id="link_U_UC12"><path d="M123.19,565.98 C147.21,546.08 196.14,508.31 244,488 C273.82,475.35 302.6974,468.0068 332.7374,462.5268 " fill="none" id="U-to-UC12" style="stroke:#181818;stroke-width:1.0;"></path><polygon fill="#181818" points="338.64,461.45,329.0683,459.1301,333.7212,462.3473,330.504,467.0002,338.64,461.45" style="stroke:#181818;stroke-width:1.0;"></polygon></g><!--link U to UC13--><g id="link_U_UC13"><path d="M123.36,601.5 C146,635.91 187.84,704.42 208,769 C227.81,832.46 200.9,1015.38 244,1066 C256.1,1080.2 266.5613,1088.033 283.8713,1095.243 " fill="none" id="U-to-UC13" style="stroke:#181818;stroke-width:1.0;"></path><polygon fill="#181818" points="289.41,1097.55,282.6399,1090.397,284.7944,1095.6275,279.5639,1097.782,289.41,1097.55" style="stroke:#181818;stroke-width:1.0;"></polygon></g><!--link U to UC15--><g id="link_U_UC15"><path d="M123.42,576.81 C154.85,572.34 222.8996,562.6635 287.8996,553.4335 " fill="none" id="U-to-UC15" style="stroke:#181818;stroke-width:1.0;"></path><polygon fill="#181818" points="293.84,552.59,284.367,549.895,288.8897,553.2929,285.4917,557.8156,293.84,552.59" style="stroke:#181818;stroke-width:1.0;"></polygon></g><!--link U to UC16--><g id="link_U_UC16"><path d="M123.24,589.58 C147.72,606.17 197.74,638.4 244,658 C267.93,668.14 288.9235,675.1677 313.8835,682.1777 " fill="none" id="U-to-UC16" style="stroke:#181818;stroke-width:1.0;"></path><polygon fill="#181818" points="319.66,683.8,312.0768,677.5155,314.8462,682.4481,309.9137,685.2175,319.66,683.8" style="stroke:#181818;stroke-width:1.0;"></polygon></g><!--link U to UC18--><g id="link_U_UC18"><path d="M123.42,581.14 C162.01,586.5 258.8469,599.9453 330.3369,609.8653 " fill="none" id="U-to-UC18" style="stroke:#181818;stroke-width:1.0;"></path><polygon fill="#181818" points="336.28,610.69,327.9152,605.491,331.3275,610.0028,326.8156,613.415,336.28,610.69" style="stroke:#181818;stroke-width:1.0;"></polygon></g><!--link U to UC19--><g id="link_U_UC19"><path d="M113.89,540.39 C130.27,438.08 179.41,163.58 244,102 C263.88,83.05 285.263,73.9084 311.963,68.4184 " fill="none" id="U-to-UC19" style="stroke:#181818;stroke-width:1.0;"></path><polygon fill="#181818" points="317.84,67.21,308.2188,65.1046,312.9425,68.217,309.83,72.9407,317.84,67.21" style="stroke:#181818;stroke-width:1.0;"></polygon></g><!--link U to UC20--><g id="link_U_UC20"><path d="M109.7,540.42 C115.34,461.67 139.59,281.79 244,186 C261.69,169.77 278.9306,161.1755 302.1906,154.8455 " fill="none" id="U-to-UC20" style="stroke:#181818;stroke-width:1.0;"></path><polygon fill="#181818" points="307.98,153.27,298.2455,151.7737,303.1555,154.583,300.3462,159.4929,307.98,153.27" style="stroke:#181818;stroke-width:1.0;"></polygon></g><!--link L to UC02--><g id="link_L_UC02"><path d="M124.79,1152.49 C146.04,1196.55 186.89,1267.58 244,1306 C267.9,1322.08 291.7188,1330.3819 319.3888,1335.9719 " fill="none" id="L-to-UC02" style="stroke:#181818;stroke-width:1.0;"></path><polygon fill="#181818" points="325.27,1337.16,317.2403,1331.457,320.369,1336.1699,315.6561,1339.2986,325.27,1337.16" style="stroke:#181818;stroke-width:1.0;"></polygon></g><!--link L to UC03--><g id="link_L_UC03"><path d="M124.18,1075.45 C155.52,1001.55 223.23,845.72 244,829 C265.97,811.31 288.6883,802.5658 315.9683,797.0658 " fill="none" id="L-to-UC03" style="stroke:#181818;stroke-width:1.0;"></path><polygon fill="#181818" points="321.85,795.88,312.237,793.7376,316.9486,796.8682,313.8181,801.5798,321.85,795.88" style="stroke:#181818;stroke-width:1.0;"></polygon></g><!--link L to UC04--><g id="link_L_UC04"><path d="M122.11,1075.43 C141.78,1027.3 182.13,946.1 244,903 C268.18,886.16 292.8161,877.8898 321.1261,872.7598 " fill="none" id="L-to-UC04" style="stroke:#181818;stroke-width:1.0;"></path><polygon fill="#181818" points="327.03,871.69,317.461,869.3588,322.1101,872.5815,318.8874,877.2306,327.03,871.69" style="stroke:#181818;stroke-width:1.0;"></polygon></g><!--link L to UC05--><g id="link_L_UC05"><path d="M135.83,1102.95 C163.11,1092.37 206.01,1076.37 244,1065 C273.63,1056.13 300.8257,1049.2281 329.6157,1042.5381 " fill="none" id="L-to-UC05" style="stroke:#181818;stroke-width:1.0;"></path><polygon fill="#181818" points="335.46,1041.18,325.7882,1039.3209,330.5898,1042.3117,327.5989,1047.1133,335.46,1041.18" style="stroke:#181818;stroke-width:1.0;"></polygon></g><!--link L to UC08--><g id="link_L_UC08"><path d="M135.98,1125.53 C163.19,1136.4 205.88,1152.54 244,1163 C282.04,1173.44 319.9715,1180.7345 353.1215,1186.2545 " fill="none" id="L-to-UC08" style="stroke:#181818;stroke-width:1.0;"></path><polygon fill="#181818" points="359.04,1187.24,350.8193,1181.816,354.1079,1186.4187,349.5052,1189.7074,359.04,1187.24" style="stroke:#181818;stroke-width:1.0;"></polygon></g><!--link L to UC11--><g id="link_L_UC11"><path d="M135.77,1078.54 C160.9,1048.87 200.56,1007.69 244,984 C268.02,970.9 290.4278,963.3737 316.7778,957.4137 " fill="none" id="L-to-UC11" style="stroke:#181818;stroke-width:1.0;"></path><polygon fill="#181818" points="322.63,956.09,312.9693,954.1741,317.7532,957.1931,314.7342,961.977,322.63,956.09" style="stroke:#181818;stroke-width:1.0;"></polygon></g><!--link L to UC13--><g id="link_L_UC13"><path d="M135.92,1114 C166.42,1114 211.62,1114 261.6,1114 " fill="none" id="L-to-UC13" style="stroke:#181818;stroke-width:1.0;"></path><polygon fill="#181818" points="267.6,1114,258.6,1110,262.6,1114,258.6,1118,267.6,1114" style="stroke:#181818;stroke-width:1.0;"></polygon></g><!--link L to UC14--><g id="link_L_UC14"><path d="M116.67,1152.5 C131.96,1211.3 169.4,1322.96 244,1383 C262.38,1397.79 279.4933,1405.9284 302.3633,1412.3484 " fill="none" id="L-to-UC14" style="stroke:#181818;stroke-width:1.0;"></path><polygon fill="#181818" points="308.14,1413.97,300.556,1407.6864,303.3261,1412.6186,298.3939,1415.3887,308.14,1413.97" style="stroke:#181818;stroke-width:1.0;"></polygon></g><!--link L to UC17--><g id="link_L_UC17"><path d="M135.94,1143.94 C161.63,1169.71 202.01,1205.96 244,1227 C270.32,1240.19 295.3253,1247.8931 323.2853,1253.9331 " fill="none" id="L-to-UC17" style="stroke:#181818;stroke-width:1.0;"></path><polygon fill="#181818" points="329.15,1255.2,321.1975,1249.3898,324.2627,1254.1442,319.5083,1257.2094,329.15,1255.2" style="stroke:#181818;stroke-width:1.0;"></polygon></g><!--link SA to UC06--><g id="link_SA_UC06"><path d="M154.28,1474.42 C198.47,1480.56 260.317,1489.1452 315.077,1496.7452 " fill="none" id="SA-to-UC06" style="stroke:#181818;stroke-width:1.0;"></path><polygon fill="#181818" points="321.02,1497.57,312.6553,1492.3707,316.0675,1496.8827,311.5556,1500.2948,321.02,1497.57" style="stroke:#181818;stroke-width:1.0;"></polygon></g><!--link SA to UC14--><g id="link_SA_UC14"><path d="M154.28,1461.58 C196.16,1455.76 253.277,1447.8352 306.357,1440.4652 " fill="none" id="SA-to-UC14" style="stroke:#181818;stroke-width:1.0;"></path><polygon fill="#181818" points="312.3,1439.64,302.8354,1436.9158,307.3475,1440.3276,303.9356,1444.8397,312.3,1439.64" style="stroke:#181818;stroke-width:1.0;"></polygon></g><!--link ERV to UC16--><g id="link_ERV_UC16"><path d="M171.56,786.51 C193.92,774.02 219.58,760.87 244,751 C267.92,741.34 288.7759,734.5751 313.6159,727.7251 " fill="none" id="ERV-to-UC16" style="stroke:#181818;stroke-width:1.0;"></path><polygon fill="#181818" points="319.4,726.13,309.6605,724.6665,314.5799,727.4592,311.7872,732.3786,319.4,726.13" style="stroke:#181818;stroke-width:1.0;"></polygon></g><!--link ERV to UC11--><g id="link_ERV_UC11"><path d="M166.77,863.51 C190.09,877.48 217.6,892.42 244,903 C271.64,914.07 297.2533,921.4024 325.3233,927.8724 " fill="none" id="ERV-to-UC11" style="stroke:#181818;stroke-width:1.0;"></path><polygon fill="#181818" points="331.17,929.22,323.2984,923.3007,326.2978,928.097,321.5015,931.0963,331.17,929.22" style="stroke:#181818;stroke-width:1.0;"></polygon></g><!--SRC=[RLJBRjim4BphAmZVZLf-nRaKS6mNAA0qWGNdpb0hcO14fdmuDOh-Uqc5PBHoV9lbB3cpit8BjI564iMRio4LLy0CboBBA3DIaPC6HQWcfu0B_ggeubJuOX6AvLKRwBPLn_jokGtroU6F0ILeIuwWWIfs1gM_lN3DtQcUUExX-99b_aqgcXR8v4cqN41uvaeUgQ0DT21CUAHlUYfAyZSZxcSrCAfTNw_p20tNHb5lW51HaQqrPzVBML_gUq-xMOvRTzJGLZQ3jo9nZeaFKYdvpaNZxKYh6EZ8N62cjwik7pe6kXrn-ONiPoLhxipV2bXXTZ_XuF02P4_r-LLILKNw6jD_ISFhu3qflHihVPFAE4_nV8FFV_Wqdkbre2gVOSfFuK9kGs25TAjnXDyMTEAFvdsu-3Y7MKNYQDuxsNLMS7CbUwwPrTgFyy4R9blcXXyzvQFfVnoIdHH6oVPshFdo9gq-JQU9kIT1L5yabw_6JPqq48IGscrxMdOVQjAs7W_BkvTejIDr5CsZRGrtNqDZtPsbVVD1HUeefSCqUTZBTz5A6dSYlyVC-64vtTBwhmhQUbgwPUKCGijyblKz9pATVl_yNX9SOBZ4S8NX7O9XTHB4DuVy4yGFvVZcCDW4DnZU8nWj5L7M7CC5XaiCLnXk40mU2YmwGNoLYxZ7vJPUjiROyVk2-rl4FWU5FFlt7m00]--></g></svg>